<?xml version="1.0" encoding="utf-8"?>
<!-- Generator: Adobe Illustrator 16.0.3, SVG Export Plug-In . SVG Version: 6.00 Build 0)  -->
<!DOCTYPE svg PUBLIC "-//W3C//DTD SVG 1.1//EN" "http://www.w3.org/Graphics/SVG/1.1/DTD/svg11.dtd">
<svg version="1.1" id="Capa_1" xmlns="http://www.w3.org/2000/svg" xmlns:xlink="http://www.w3.org/1999/xlink" x="0px" y="0px"
	 width="126px" height="126px" viewBox="0 0 126 126" enable-background="new 0 0 126 126" xml:space="preserve">
<g>
	<g>
		
		<path fill-rule="evenodd" clip-rule="evenodd" fill="#1E2E6E" d="M118.51,61.573c0.139,11.171-4.223,19.544-11.98,26.298
			c-5.785,5.038-12.559,8.247-19.858,10.414c-5.22,1.55-10.561,2.451-15.986,2.881c-3.046,0.242-6.096,0.348-9.148,0.289
			c-9.993-0.193-19.721-1.763-28.968-5.728c-5.547-2.378-10.602-5.524-14.899-9.797c-5.156-5.127-8.637-11.183-9.607-18.456
			c-0.758-5.686-0.565-11.324,1.905-16.682c2.044-4.433,5.02-8.145,8.667-11.34c6.146-5.385,13.312-8.881,21.06-11.27
			c5.916-1.824,11.976-2.858,18.153-3.231c10.161-0.613,20.12,0.454,29.827,3.587c6.896,2.227,13.305,5.401,18.92,10.04
			c4.309,3.558,7.826,7.744,9.998,12.957C118.023,54.973,118.674,58.552,118.51,61.573z"/>
		<path fill-rule="evenodd" clip-rule="evenodd" fill="#19A4C9" d="M63.232,95.111c-10.233-0.085-20.062-1.703-29.431-5.657
			c-6.137-2.59-11.728-6.021-16.336-10.903c-3.765-3.988-6.423-8.573-7.321-14.051c-0.285-1.736-0.412-3.493-0.203-5.26
			c0.047-0.4,0.178-0.483,0.535-0.395c3.809,0.938,7.648,1.753,11.397,2.928c3.128,0.98,6.213,2.065,9.116,3.611
			c0.541,0.288,1.044,0.646,1.582,0.941c0.318,0.174,0.336,0.366,0.237,0.693c-0.928,3.061,0.765,6.088,3.835,6.859
			c0.592,0.149,1.202,0.274,1.818,0.118c0.353-0.089,0.459,0.087,0.547,0.387c0.749,2.552,2.509,3.989,5.053,4.553
			c0.467,0.104,0.954,0.132,1.404,0.027c0.465-0.108,0.674-0.01,0.886,0.423c0.949,1.941,4.014,3.549,6.381,2.851
			c0.348-0.103,0.5,0.013,0.663,0.319c1.993,3.748,6.565,4.644,9.812,1.921c0.291-0.244,0.483-0.297,0.842-0.108
			c1.462,0.77,3.021,1.332,4.677,1.344c1.813,0.014,3.57-0.313,4.741-1.94c0.184-0.255,0.354-0.185,0.579-0.128
			c2.877,0.723,5.677-1.209,6.407-3c0.381-0.935,0.868-1.033,1.733-1.035c2.792-0.006,5.28-1.991,5.864-4.529
			c0.082-0.355-0.126-0.856,0.203-1.031c0.276-0.146,0.711,0.024,1.075,0.023c3.163-0.001,5.722-2.413,5.659-5.337
			c-0.014-0.703-0.152-1.395-0.497-2.006c-0.26-0.46-0.101-0.594,0.321-0.764c2.959-1.194,5.961-2.271,9-3.242
			c3.934-1.257,7.912-2.35,11.932-3.299c0.543-0.128,0.641,0.001,0.658,0.517c0.205,5.992-1.762,11.259-5.354,15.966
			c-3.554,4.657-8.096,8.148-13.194,10.946c-6.298,3.456-13.037,5.645-20.091,6.924c-3.911,0.709-7.848,1.135-11.822,1.254
			C65.001,95.058,64.06,95.068,63.232,95.111z"/>
		<path fill-rule="evenodd" clip-rule="evenodd" fill="#FFFFFF" d="M49.35,43.448c-1.713,1.847-3.421,3.699-5.141,5.54
			c-1.336,1.43-1.187,2.941,0.435,4.041c1.167,0.792,2.509,1.06,3.877,1.25c2.746,0.381,5.048-0.607,7.175-2.232
			c1.774-1.354,3.465-2.821,5.38-3.987c0.929-0.566,1.877-1.091,2.925-1.403c1.79-0.531,3.439-0.132,5,0.796
			c1.93,1.147,3.603,2.636,5.314,4.068c5.877,4.919,11.652,9.958,17.428,14.995c1.74,1.518,1.479,3.841-0.537,4.948
			c-1.442,0.792-3.218,0.597-4.376-0.492c-2.432-2.288-4.917-4.52-7.457-6.689c-0.264-0.226-0.525-0.453-0.862-0.578
			c-0.263-0.098-0.487-0.058-0.679,0.128c-0.197,0.19-0.222,0.418-0.121,0.678c0.123,0.318,0.35,0.549,0.582,0.781
			c2.176,2.174,4.35,4.35,6.525,6.524c0.305,0.305,0.601,0.615,0.823,0.989c0.557,0.936,0.585,1.909-0.03,2.782
			c-0.986,1.397-2.355,2.121-4.109,1.937c-0.717-0.075-1.308-0.413-1.823-0.924c-1.819-1.804-3.616-3.632-5.57-5.293
			c-0.251-0.213-0.511-0.409-0.836-0.499c-0.24-0.066-0.448-0.01-0.618,0.167c-0.177,0.184-0.179,0.396-0.095,0.628
			c0.079,0.219,0.219,0.392,0.369,0.56c1.609,1.805,3.186,3.64,4.837,5.406c1.445,1.546,0.823,2.854-0.71,3.741
			c-0.878,0.508-1.866,0.564-2.861,0.331c-0.329-0.077-0.59-0.244-0.83-0.488c-1.508-1.536-3.05-3.037-4.696-4.427
			c-0.217-0.184-0.454-0.352-0.703-0.488c-0.268-0.147-0.56-0.159-0.793,0.079c-0.237,0.242-0.189,0.536-0.05,0.799
			c0.104,0.196,0.253,0.373,0.404,0.539c1.322,1.457,2.628,2.928,3.985,4.352c0.43,0.452,0.259,0.699-0.127,0.955
			c-0.875,0.58-1.863,0.728-2.881,0.644c-1.156-0.096-2.227-0.497-3.273-0.986c-0.371-0.173-0.383-0.338-0.251-0.694
			c1.342-3.632-0.747-7.511-4.515-8.4c-0.356-0.084-0.732-0.173-1.091-0.146c-0.512,0.039-0.573-0.195-0.544-0.609
			c0.042-0.617-0.038-1.227-0.195-1.826c-0.766-2.933-3.987-4.736-7.059-3.929c-0.409,0.107-0.614,0.057-0.858-0.324
			c-1.55-2.417-5.222-3.284-7.881-1.852c-0.527,0.284-0.809,0.337-1.307-0.134c-1.987-1.88-4.936-1.917-7.063-0.175
			c-0.204,0.167-0.325,0.289-0.611,0.095c-2.703-1.827-5.714-2.998-8.764-4.086c-4.189-1.495-8.513-2.508-12.823-3.571
			c-0.437-0.107-0.859-0.285-1.301-0.354c-0.549-0.086-0.6-0.338-0.478-0.829c1.095-4.392,3.296-8.179,6.268-11.548
			c1.332-1.51,2.799-2.878,4.338-4.176c0.364-0.307,0.646-0.355,1.085-0.179c4.509,1.804,9.137,3.223,13.865,4.334
			c3.589,0.843,7.128,0.885,10.649-0.316c0.772-0.263,1.564-0.484,2.377-0.6C49.218,43.25,49.361,43.206,49.35,43.448z"/>
		<path fill-rule="evenodd" clip-rule="evenodd" fill="#FFFFFF" d="M65.558,38.271c3.696,0.06,7.214,0.959,10.54,2.525
			c5.044,2.376,10.305,3.591,15.888,3.251c4.571-0.278,8.892-1.545,13.052-3.411c0.278-0.125,0.516-0.268,0.83,0.006
			c4.146,3.61,7.479,7.795,9.3,13.059c0.315,0.91,0.542,1.843,0.769,2.778c0.111,0.456-0.042,0.538-0.436,0.627
			c-7.555,1.728-14.916,4.057-22.031,7.137c-0.545,0.236-0.869,0.204-1.332-0.2c-6.363-5.548-12.695-11.134-19.25-16.459
			c-0.923-0.75-1.894-1.433-2.893-2.08c-2.829-1.83-5.708-1.75-8.618-0.237c-1.922,0.999-3.556,2.411-5.248,3.737
			c-1.257,0.984-2.471,2.054-3.951,2.69c-1.953,0.84-3.95,0.835-5.897-0.042c-0.958-0.432-0.985-0.716-0.267-1.478
			c2.052-2.177,4.048-4.404,6.188-6.5C55.921,40.033,60.356,38.23,65.558,38.271z"/>
		<path fill-rule="evenodd" clip-rule="evenodd" fill="#19A4C9" d="M23.568,38.186c1.628-1.194,3.256-2.179,4.927-3.089
			c6.146-3.347,12.705-5.51,19.568-6.801c3.482-0.655,6.991-1.061,10.529-1.258c2.725-0.152,5.452-0.177,8.172-0.054
			c8.813,0.399,17.362,2.069,25.534,5.481c3.793,1.585,7.385,3.533,10.725,5.937c0.191,0.138,0.43,0.235,0.574,0.519
			c-1.465,0.656-2.954,1.2-4.473,1.663c-3.475,1.06-7.025,1.579-10.659,1.36c-3.694-0.223-7.233-1.122-10.579-2.696
			c-3.021-1.42-6.146-2.518-9.46-2.901c-5.561-0.644-10.779,0.307-15.328,3.796c-0.578,0.444-1.156,0.584-1.843,0.637
			c-2.009,0.153-3.947,0.68-5.862,1.268c-2.796,0.859-5.582,0.844-8.416,0.173c-4.382-1.039-8.699-2.285-12.929-3.831
			C23.918,38.342,23.791,38.281,23.568,38.186z"/>
		<path fill-rule="evenodd" clip-rule="evenodd" fill="#FFFFFF" d="M41.379,69.142c0.448-0.699,0.846-1.291,1.403-1.752
			c1.39-1.152,2.935-1.475,4.649-0.869c1.214,0.428,1.874,1.332,2.144,2.556c0.04,0.179,0.049,0.366,0.089,0.545
			c0.118,0.533,0.418,0.65,0.814,0.27c1.296-1.248,2.759-1.284,4.314-0.623c1.619,0.688,2.354,2.293,2.002,4.306
			c-0.085,0.484-0.211,0.957-0.381,1.42c-0.097,0.264-0.197,0.559,0.048,0.804c0.24,0.24,0.508,0.088,0.746-0.006
			c1.511-0.604,2.957-0.551,4.322,0.398c1.613,1.122,2.267,3.263,1.549,5.07c-0.738,1.857-2.718,3.035-4.611,2.744
			c-2.051-0.316-3.563-1.9-3.729-3.906c-0.015-0.183-0.024-0.37-0.073-0.545c-0.107-0.383-0.37-0.474-0.708-0.296
			c-0.16,0.084-0.293,0.221-0.434,0.339c-1.867,1.568-5.145,0.463-5.706-1.918c-0.087-0.368-0.034-0.732-0.039-1.1
			c-0.006-0.467-0.259-0.617-0.686-0.428c-0.074,0.033-0.145,0.078-0.209,0.127c-2.443,1.854-5.666-0.34-6.024-2.813
			c-0.085-0.591-0.134-1.179-0.027-1.772c0.05-0.273,0.045-0.539-0.223-0.711c-0.305-0.196-0.388,0.137-0.533,0.257
			c-1.18,0.976-2.847,1.047-4.106,0.155c-1.229-0.871-1.732-2.467-1.221-3.872c0.538-1.477,1.972-2.354,3.591-2.194
			c1.416,0.14,2.643,1.325,2.882,2.786C41.271,68.416,41.315,68.719,41.379,69.142z"/>
		<path fill-rule="evenodd" clip-rule="evenodd" fill="#D4D6DD" d="M49.35,43.448c-0.056-0.119-0.175-0.12-0.279-0.15
			c0.146-0.103,0.315-0.184,0.457-0.04C49.577,43.307,49.441,43.408,49.35,43.448z"/>
	</g>
</g>
</svg>
